# xmcd CD database file
#
# Track frame offsets:
#	150
#	14695
#	23991
#	44763
#	55842
#	68976
#	80875
#	99171
#	118132
#	130818
#	143046
#	153495
#	167127
#
# Disc length: 2473 seconds
#
# Revision: 0
# Processed by: cddbd v1.5.2PL0 Copyright (c) Steve Scherf et al.
# Submitted via: cdripper 1,0,31,311
#
DISCID=b909a70d
DTITLE=Delbert McClinton - Cost of Living
DYEAR=2005
DGENRE=Blues
TTITLE0=One of the Fortunate Few
TTITLE1=Right to Be Wrong
TTITLE2=The Part I Like the Best
TTITLE3=I'll Change My Style
TTITLE4=Hammerhead Stew
TTITLE5=Your Memory, Me and The Blues
TTITLE6=Dead Wrong
TTITLE7=Down Into Mexico
TTITLE8=Kiss Her Once for Me
TTITLE9=Had  Real Good Time
TTITLE10=Midnight Communion
TTITLE11=Two Step Too
TTITLE12=Alright By Me
EXTD=YEAR: 2005
EXTT0=
EXTT1=
EXTT2=
EXTT3=
EXTT4=
EXTT5=
EXTT6=
EXTT7=
EXTT8=
EXTT9=
EXTT10=
EXTT11=
EXTT12=
PLAYORDER=
